<?xml version="1.0" standalone="no"?>
<!DOCTYPE svg PUBLIC "-//W3C//DTD SVG 20010904//EN"
 "http://www.w3.org/TR/2001/REC-SVG-20010904/DTD/svg10.dtd">
<svg version="1.0" xmlns="http://www.w3.org/2000/svg"
 width="700.000000pt" height="700.000000pt" viewBox="0 0 700.000000 700.000000"
 preserveAspectRatio="xMidYMid meet">
<metadata>
Created by potrace 1.11, written by Peter Selinger 2001-2013
</metadata>
<g transform="translate(0.000000,700.000000) scale(0.100000,-0.100000)"
fill="#000000" stroke="none">
<path d="M4030 6561 c-25 -16 -175 -104 -335 -196 -159 -93 -424 -247 -588
-342 -164 -96 -312 -182 -330 -192 -18 -10 -94 -55 -171 -100 -76 -44 -140
-81 -143 -81 -3 0 -17 -8 -31 -19 -15 -10 -47 -29 -72 -43 -50 -28 -934 -542
-1155 -672 -77 -45 -256 -149 -397 -231 -141 -82 -267 -156 -279 -166 -39 -29
-20 -58 77 -114 107 -61 78 -44 592 -343 331 -192 421 -248 409 -256 -8 -6
-249 -148 -537 -316 -287 -168 -525 -311 -527 -318 -7 -16 5 -62 16 -62 4 0
178 -99 386 -220 208 -121 379 -220 380 -220 1 0 51 -29 110 -65 59 -36 109
-65 111 -65 15 0 104 -64 97 -70 -4 -5 -242 -144 -528 -310 -286 -166 -537
-313 -557 -326 -55 -35 -52 -64 12 -103 28 -17 52 -31 55 -31 3 0 34 -18 70
-40 36 -22 67 -40 69 -40 2 0 98 -53 213 -118 114 -65 228 -130 253 -144 25
-14 61 -34 80 -46 19 -11 224 -127 455 -257 231 -131 517 -293 635 -360 118
-67 240 -136 270 -152 30 -17 95 -54 143 -82 49 -28 95 -51 102 -51 7 0 156
82 332 183 175 101 455 262 623 359 168 97 321 185 340 195 72 41 757 436 820
473 36 21 200 116 365 211 165 94 359 206 430 247 72 41 148 85 170 98 164 91
432 248 444 259 37 36 14 52 -436 321 -241 143 -491 292 -555 330 -65 38 -118
71 -118 74 0 3 39 27 88 54 48 27 119 68 157 91 39 23 258 149 487 279 240
137 420 246 423 256 9 30 -4 45 -73 85 -260 150 -734 423 -872 502 -90 51
-165 95 -167 96 -1 2 243 144 542 317 562 325 582 338 544 375 -11 10 -692
412 -869 512 -19 11 -60 35 -90 53 -30 18 -68 40 -85 50 -16 9 -194 112 -394
229 -199 117 -377 221 -395 230 -17 10 -140 82 -273 160 -133 77 -250 141
-260 140 -10 0 -38 -13 -63 -28z m440 -282 c190 -111 359 -210 375 -220 17
-10 37 -22 45 -26 8 -4 60 -34 115 -66 55 -33 119 -70 141 -83 23 -13 131 -76
240 -140 110 -64 219 -128 244 -142 24 -14 84 -49 133 -78 49 -30 91 -54 93
-54 2 0 25 -13 51 -29 27 -16 66 -40 89 -53 202 -115 333 -194 331 -200 -1 -4
-236 -143 -521 -308 -462 -268 -523 -300 -543 -291 -13 6 -123 69 -246 139
-122 71 -242 140 -267 154 -25 14 -179 103 -342 197 -163 94 -303 171 -312
171 -8 0 -90 -44 -183 -98 -92 -55 -532 -312 -978 -572 -445 -260 -838 -490
-872 -511 -34 -22 -64 -39 -67 -39 -2 0 -65 -36 -139 -80 -75 -44 -140 -80
-145 -80 -6 0 -75 38 -154 84 -78 47 -317 185 -529 308 l-386 224 496 289
c273 159 658 383 856 499 198 115 374 217 390 226 17 10 92 54 169 99 76 44
140 81 142 81 2 0 28 16 58 35 30 19 57 35 59 35 3 0 35 18 72 41 37 22 82 49
99 58 17 10 173 100 346 201 173 101 326 190 340 198 14 7 113 65 220 128 127
74 202 112 215 109 11 -2 175 -95 365 -206z m172 -1436 c293 -168 537 -309
541 -313 8 -7 -17 -24 -118 -80 -22 -12 -121 -70 -220 -127 -99 -58 -225 -131
-280 -163 -55 -32 -208 -121 -340 -198 -132 -76 -278 -161 -325 -188 -47 -27
-92 -53 -102 -59 -9 -5 -47 -27 -85 -49 -37 -21 -88 -51 -113 -66 -136 -83
-708 -410 -716 -410 -6 0 -39 17 -75 38 -35 21 -277 162 -536 312 -260 151
-471 275 -470 276 2 2 691 404 742 434 17 9 152 88 300 175 946 553 1241 725
1252 725 6 0 251 -138 545 -307z m1005 -579 c654 -377 704 -407 696 -415 -4
-4 -98 -59 -208 -121 -110 -63 -209 -120 -220 -126 -11 -7 -168 -97 -349 -201
l-330 -188 -385 231 c-212 126 -448 267 -524 312 l-139 82 119 70 c65 38 249
145 408 237 285 166 335 195 485 281 41 24 78 44 82 44 4 0 169 -93 365 -206z
m-649 -1010 c78 -47 142 -88 142 -92 -1 -4 -164 -100 -363 -214 -199 -113
-591 -338 -872 -499 -280 -160 -616 -352 -745 -426 -129 -74 -239 -139 -245
-144 -5 -5 -16 -9 -26 -9 -20 0 -1038 591 -1040 604 0 5 183 116 408 247 224
131 453 264 507 296 54 32 104 60 110 62 6 2 121 68 256 146 135 79 261 152
280 162 19 11 171 99 337 196 166 97 314 182 329 190 26 14 37 8 403 -211 207
-123 440 -262 519 -308z m-3036 365 c266 -155 338 -197 598 -349 96 -57 188
-110 203 -118 16 -8 25 -17 20 -21 -4 -4 -71 -44 -148 -88 -77 -44 -237 -137
-355 -206 -118 -68 -231 -134 -250 -145 -19 -10 -90 -51 -157 -91 -67 -39
-124 -71 -128 -71 -4 0 -75 40 -158 89 -84 49 -251 146 -372 216 -121 71 -293
171 -383 223 l-163 94 58 36 c32 19 76 45 98 57 22 12 229 133 460 268 231
136 423 247 427 247 4 0 116 -64 250 -141z m3817 -832 l540 -323 -167 -96
c-157 -90 -1204 -693 -1577 -908 -730 -421 -1087 -626 -1125 -648 -25 -14 -99
-56 -165 -95 -66 -38 -138 -80 -160 -92 -22 -13 -78 -45 -125 -72 l-85 -49
-47 27 c-44 26 -85 50 -185 106 -27 14 -145 81 -263 148 -289 165 -287 164
-350 198 -30 17 -104 59 -164 94 -60 35 -110 63 -111 63 -2 0 -63 34 -137 76
-73 43 -151 87 -173 99 -99 56 -564 319 -595 338 -19 11 -79 44 -132 74 -54
30 -98 58 -98 62 0 4 17 16 38 28 40 22 864 500 974 565 38 22 74 38 82 35 13
-5 211 -120 906 -525 118 -69 220 -125 225 -125 6 0 69 34 140 75 172 100 789
455 840 482 49 27 641 368 687 396 18 11 39 23 47 26 7 4 153 87 324 185 172
99 312 179 313 179 1 0 245 -145 543 -323z"/>
</g>
</svg>
